<svg width="157" height="50" viewBox="0 0 157 50" fill="none" xmlns="http://www.w3.org/2000/svg">
<g clip-path="url(#clip0_313_226)">
<path fill-rule="evenodd" clip-rule="evenodd" d="M53.3725 62.4334C53.5606 62.4334 53.7156 62.4411 53.8376 62.4564C53.9595 62.4717 54.0574 62.4933 54.1311 62.5214C54.2048 62.5494 54.2569 62.5826 54.2874 62.6208C54.3179 62.6591 54.3331 62.7037 54.3331 62.7547V69.5619C54.3331 69.6129 54.3179 69.6575 54.2874 69.6958C54.2569 69.734 54.2048 69.7659 54.1311 69.7914C54.0574 69.8169 53.9595 69.836 53.8376 69.8488C53.7644 69.8564 53.6793 69.8618 53.5823 69.8648L53.3725 69.8679L53.1627 69.8648L52.9846 69.8556L52.9075 69.8488C52.7855 69.836 52.6876 69.8169 52.6139 69.7914C52.5402 69.7659 52.4881 69.734 52.4576 69.6958C52.4272 69.6575 52.4119 69.6129 52.4119 69.5619V62.7547C52.4119 62.7037 52.4272 62.6591 52.4576 62.6208C52.4881 62.5826 52.5402 62.5494 52.6139 62.5214C52.6876 62.4933 52.7855 62.4717 52.9075 62.4564C53.0294 62.4411 53.1845 62.4334 53.3725 62.4334ZM48.2892 60.4458L48.4996 60.4488C48.5972 60.4519 48.6833 60.4572 48.758 60.4649C48.8825 60.4776 48.9804 60.498 49.0515 60.5261C49.1227 60.5541 49.1735 60.5885 49.204 60.6293C49.2345 60.6701 49.2498 60.716 49.2498 60.767V62.2891H50.7288C50.7796 62.2891 50.8241 62.3018 50.8622 62.3273C50.9003 62.3528 50.9321 62.3949 50.9575 62.4535C50.9829 62.5122 51.002 62.5925 51.0147 62.6945C51.0274 62.7964 51.0337 62.9214 51.0337 63.0692C51.0337 63.3497 51.0083 63.5498 50.9575 63.6697C50.9067 63.7895 50.833 63.8494 50.7364 63.8494H49.2498V67.0542C49.2498 67.4264 49.3082 67.7056 49.4251 67.8917C49.542 68.0778 49.7504 68.1709 50.0502 68.1709C50.1519 68.1709 50.2434 68.1619 50.3247 68.1441C50.406 68.1263 50.4785 68.1059 50.542 68.0829L50.7021 68.0217C50.7453 68.0039 50.7847 67.995 50.8203 67.995C50.8507 67.995 50.88 68.0039 50.9079 68.0217C50.9359 68.0396 50.9575 68.0753 50.9727 68.1288C50.988 68.1823 51.002 68.255 51.0147 68.3468C51.0274 68.4386 51.0337 68.5559 51.0337 68.6986C51.0337 68.923 51.0197 69.0951 50.9918 69.2149C50.9638 69.3347 50.927 69.4189 50.8812 69.4673C50.8355 69.5158 50.7682 69.5591 50.6792 69.5973C50.5903 69.6356 50.4861 69.6687 50.3666 69.6968C50.2472 69.7248 50.1176 69.7465 49.9778 69.7618C49.8381 69.7771 49.697 69.7847 49.5547 69.7847C49.1735 69.7847 48.8431 69.7363 48.5636 69.6394C48.2841 69.5425 48.0528 69.3934 47.8698 69.192C47.6869 68.9905 47.5522 68.7369 47.4658 68.4309C47.3794 68.125 47.3362 67.763 47.3362 67.3448V63.8494H46.5204C46.4239 63.8494 46.3502 63.7895 46.2993 63.6697C46.2485 63.5498 46.2231 63.3497 46.2231 63.0692C46.2231 62.9214 46.2295 62.7964 46.2422 62.6945C46.2549 62.5925 46.2739 62.5122 46.2993 62.4535C46.3247 62.3949 46.3565 62.3528 46.3946 62.3273C46.4328 62.3018 46.4772 62.2891 46.5281 62.2891H47.3362V60.767C47.3362 60.716 47.3502 60.6701 47.3781 60.6293C47.4061 60.5885 47.4569 60.5541 47.5306 60.5261C47.6043 60.498 47.7034 60.4776 47.8279 60.4649C47.9524 60.4521 48.1062 60.4458 48.2892 60.4458ZM100.965 59.468C101.199 59.468 101.433 59.4858 101.667 59.5215C101.9 59.5572 102.119 59.6057 102.322 59.6668C102.526 59.728 102.706 59.7969 102.864 59.8734C103.021 59.9498 103.125 60.0136 103.176 60.0646C103.227 60.1156 103.261 60.1589 103.279 60.1946C103.297 60.2303 103.312 60.2775 103.325 60.3361C103.338 60.3947 103.346 60.4687 103.352 60.5579L103.357 60.708L103.359 60.8906L103.356 61.0952L103.348 61.2654C103.34 61.3674 103.327 61.4515 103.31 61.5178C103.292 61.5841 103.266 61.6325 103.233 61.6631C103.2 61.6937 103.156 61.709 103.1 61.709C103.053 61.709 102.984 61.6842 102.891 61.6347L102.833 61.6019C102.711 61.5306 102.561 61.4528 102.383 61.3687C102.205 61.2845 102 61.208 101.766 61.1392C101.532 61.0704 101.275 61.0359 100.996 61.0359C100.777 61.0359 100.587 61.0627 100.424 61.1163C100.261 61.1698 100.125 61.2437 100.016 61.3381C99.9068 61.4324 99.8255 61.5459 99.7721 61.6784C99.7188 61.811 99.6921 61.9512 99.6921 62.0991C99.6921 62.3184 99.7518 62.5083 99.8712 62.6689C99.9907 62.8295 100.151 62.9723 100.352 63.0972C100.552 63.2222 100.78 63.3395 101.034 63.4491C101.288 63.5587 101.547 63.6747 101.812 63.7971C102.076 63.9195 102.335 64.0584 102.589 64.2139C102.843 64.3695 103.069 64.5556 103.268 64.7723C103.466 64.989 103.626 65.244 103.748 65.5372C103.87 65.8304 103.931 66.1758 103.931 66.5735C103.931 67.0937 103.834 67.55 103.641 67.9426C103.448 68.3353 103.186 68.6629 102.856 68.9255C102.526 69.1881 102.139 69.3857 101.697 69.5183C101.255 69.6508 100.782 69.7171 100.279 69.7171C99.9386 69.7171 99.6222 69.6891 99.33 69.633C99.0377 69.5769 98.7798 69.5093 98.5561 69.4303C98.3325 69.3513 98.1457 69.2684 97.9958 69.1817C97.8459 69.095 97.7378 69.0186 97.6718 68.9523C97.6057 68.886 97.5587 68.7904 97.5307 68.6654C97.5028 68.5405 97.4888 68.3608 97.4888 68.1262C97.4888 67.9681 97.4939 67.8356 97.5041 67.7285C97.5142 67.6214 97.5307 67.5347 97.5536 67.4684C97.5765 67.4021 97.607 67.355 97.6451 67.3269C97.6832 67.2989 97.7277 67.2849 97.7785 67.2849C97.8378 67.2849 97.9174 67.3141 98.0173 67.3725L98.0797 67.4111C98.2093 67.4952 98.3757 67.5883 98.579 67.6902C98.7823 67.7922 99.025 67.8853 99.3071 67.9694C99.5892 68.0536 99.9157 68.0956 100.287 68.0956C100.531 68.0956 100.749 68.0663 100.942 68.0077C101.136 67.949 101.299 67.8662 101.434 67.7591C101.569 67.652 101.672 67.5194 101.743 67.3614C101.814 67.2033 101.85 67.0274 101.85 66.8336C101.85 66.6092 101.789 66.4168 101.667 66.2561C101.545 66.0955 101.386 65.9527 101.19 65.8278C100.994 65.7029 100.772 65.5856 100.523 65.476C100.274 65.3663 100.017 65.2503 99.7531 65.128C99.4888 65.0056 99.2321 64.8666 98.9831 64.7111C98.734 64.5556 98.5117 64.3695 98.316 64.1528C98.1203 63.936 97.9615 63.6798 97.8395 63.3841C97.7175 63.0883 97.6565 62.7339 97.6565 62.3209C97.6565 61.8467 97.7442 61.4299 97.9196 61.0704C98.0949 60.7109 98.3312 60.4126 98.6286 60.1755C98.9259 59.9384 99.2766 59.7612 99.6806 59.6439C100.085 59.5266 100.513 59.468 100.965 59.468ZM87.6642 58.9182L87.7731 58.9173C87.9611 58.9173 88.1162 58.9249 88.2381 58.9402C88.3601 58.9555 88.4567 58.9772 88.5278 59.0052C88.599 59.0333 88.6498 59.0677 88.6803 59.1085C88.7108 59.1493 88.7261 59.1952 88.7261 59.2462V69.2812C88.7261 69.3372 88.7134 69.3844 88.6879 69.4227C88.6625 69.4609 88.6193 69.4928 88.5583 69.5183C88.4973 69.5438 88.4148 69.5616 88.3106 69.5718C88.2064 69.582 88.078 69.5871 87.9256 69.5871C87.7629 69.5871 87.6308 69.582 87.5291 69.5718C87.4275 69.5616 87.3449 69.5438 87.2813 69.5183C87.2178 69.4928 87.1721 69.4609 87.1441 69.4227C87.1162 69.3844 87.1022 69.3372 87.1022 69.2812V68.5239C86.7515 68.9013 86.3843 69.1945 86.0005 69.4035C85.6168 69.6126 85.1911 69.7171 84.7236 69.7171C84.2051 69.7171 83.7668 69.6164 83.4085 69.415C83.0501 69.2136 82.7579 68.9421 82.5317 68.6004C82.3055 68.2588 82.1416 67.8598 82.04 67.4034C81.9383 66.9471 81.8875 66.4665 81.8875 65.9617C81.8875 65.3549 81.9523 64.8093 82.0819 64.3249C82.2115 63.8404 82.4008 63.4274 82.6499 63.0858C82.8989 62.7441 83.209 62.4815 83.58 62.298C83.951 62.1144 84.3779 62.0226 84.8608 62.0226C85.242 62.0226 85.5876 62.1004 85.8976 62.2559C86.2077 62.4114 86.5152 62.6396 86.8201 62.9405V59.2462C86.8201 59.1952 86.8341 59.1493 86.862 59.1085C86.89 59.0677 86.9408 59.0333 87.0145 59.0052C87.0882 58.9772 87.186 58.9555 87.308 58.9402C87.4056 58.928 87.5243 58.9206 87.6642 58.9182ZM66.7584 62.0226C66.9719 62.0226 67.179 62.0379 67.3797 62.0685C67.5805 62.0991 67.7622 62.1373 67.9248 62.1832C68.0875 62.2291 68.2247 62.2788 68.3365 62.3324L68.4554 62.393C68.5073 62.4214 68.5477 62.4471 68.5767 62.4701C68.6249 62.5083 68.6593 62.5465 68.6796 62.5848C68.6999 62.623 68.7152 62.6689 68.7253 62.7225C68.7355 62.776 68.7444 62.8423 68.752 62.9213C68.7577 62.9806 68.7613 63.0506 68.7627 63.1314L68.7634 63.2158C68.7634 63.3535 68.7596 63.4657 68.752 63.5523C68.7444 63.639 68.7317 63.7079 68.7139 63.7589C68.6961 63.8098 68.672 63.8443 68.6415 63.8621C68.611 63.88 68.5754 63.8889 68.5347 63.8889C68.4981 63.8889 68.4453 63.8717 68.3762 63.8375L68.3213 63.8086C68.2247 63.755 68.104 63.6977 67.9591 63.6365C67.8143 63.5753 67.6466 63.5179 67.456 63.4644C67.2654 63.4108 67.0481 63.3841 66.8041 63.3841C66.6313 63.3841 66.4814 63.4019 66.3543 63.4376C66.2273 63.4733 66.1231 63.5243 66.0417 63.5906C65.9604 63.6569 65.8994 63.7346 65.8588 63.8239C65.8181 63.9131 65.7978 64.0087 65.7978 64.1107C65.7978 64.2688 65.8461 64.4013 65.9426 64.5084C66.0392 64.6155 66.1663 64.7098 66.3238 64.7914C66.442 64.8526 66.5723 64.9109 66.7148 64.9664L66.8613 65.0209C67.0621 65.0923 67.2654 65.17 67.4712 65.2542C67.6771 65.3383 67.8804 65.4365 68.0811 65.5486C68.2819 65.6608 68.461 65.7985 68.6186 65.9617C68.7762 66.1248 68.9032 66.3199 68.9998 66.5468C69.0963 66.7737 69.1446 67.0427 69.1446 67.3537C69.1446 67.7412 69.0722 68.0829 68.9274 68.3786C68.7825 68.6744 68.5779 68.9217 68.3136 69.1205C68.0493 69.3194 67.7368 69.4685 67.3759 69.568C67.015 69.6674 66.6237 69.7171 66.2018 69.7171C65.9477 69.7171 65.705 69.698 65.4738 69.6598C65.2425 69.6215 65.0354 69.5731 64.8524 69.5144C64.6695 69.4558 64.517 69.3959 64.395 69.3347C64.273 69.2735 64.1841 69.2161 64.1282 69.1626C64.0723 69.1091 64.0291 69.0249 63.9986 68.9102C63.9681 68.7955 63.9528 68.6259 63.9528 68.4016C63.9528 68.2537 63.9579 68.1351 63.9681 68.0459C63.9782 67.9567 63.9935 67.8853 64.0138 67.8317C64.0341 67.7782 64.0596 67.7425 64.09 67.7247C64.1205 67.7068 64.1587 67.6979 64.2044 67.6979C64.2491 67.6979 64.3109 67.7183 64.3898 67.7591L64.4522 67.7935C64.5615 67.8572 64.6974 67.9274 64.8601 68.0038C65.0227 68.0803 65.212 68.1517 65.428 68.218C65.644 68.2843 65.8893 68.3174 66.1637 68.3174C66.3365 68.3174 66.4903 68.2996 66.625 68.2639C66.7597 68.2282 66.8765 68.1772 66.9757 68.1109C67.0748 68.0446 67.1497 67.9605 67.2006 67.8585C67.2514 67.7565 67.2768 67.6393 67.2768 67.5067C67.2768 67.3537 67.2298 67.2224 67.1358 67.1128C67.0417 67.0031 66.9172 66.9075 66.7622 66.8259C66.6459 66.7648 66.5182 66.7064 66.3791 66.651L66.2361 66.5965C66.0405 66.5251 65.8397 66.4461 65.6339 66.3594C65.428 66.2727 65.2273 66.1733 65.0316 66.0611C64.8359 65.9489 64.6606 65.8112 64.5055 65.6481C64.3505 65.4849 64.226 65.2886 64.132 65.0591C64.038 64.8297 63.9909 64.5543 63.9909 64.2331C63.9909 63.9067 64.0545 63.6072 64.1815 63.3344C64.3086 63.0616 64.4916 62.8283 64.7304 62.6345C64.9693 62.4407 65.2603 62.2903 65.6034 62.1832C65.9464 62.0762 66.3314 62.0226 66.7584 62.0226ZM111.887 62.0226C112.101 62.0226 112.308 62.0379 112.509 62.0685C112.71 62.0991 112.891 62.1373 113.054 62.1832C113.217 62.2291 113.354 62.2788 113.466 62.3324C113.577 62.3859 113.657 62.4318 113.706 62.4701C113.754 62.5083 113.788 62.5465 113.809 62.5848C113.829 62.623 113.844 62.6689 113.854 62.7225C113.865 62.776 113.873 62.8423 113.881 62.9213C113.887 62.9806 113.89 63.0506 113.892 63.1314L113.892 63.2158C113.892 63.3535 113.889 63.4657 113.881 63.5523C113.873 63.639 113.861 63.7079 113.843 63.7589C113.825 63.8098 113.801 63.8443 113.77 63.8621C113.74 63.88 113.704 63.8889 113.664 63.8889C113.627 63.8889 113.574 63.8717 113.505 63.8375L113.45 63.8086C113.354 63.755 113.233 63.6977 113.088 63.6365C112.943 63.5753 112.776 63.5179 112.585 63.4644C112.394 63.4108 112.177 63.3841 111.933 63.3841C111.76 63.3841 111.61 63.4019 111.483 63.4376C111.356 63.4733 111.252 63.5243 111.171 63.5906C111.089 63.6569 111.028 63.7346 110.988 63.8239C110.947 63.9131 110.927 64.0087 110.927 64.1107C110.927 64.2688 110.975 64.4013 111.072 64.5084C111.168 64.6155 111.295 64.7098 111.453 64.7914C111.61 64.873 111.79 64.9495 111.99 65.0209C112.191 65.0923 112.394 65.17 112.6 65.2542C112.806 65.3383 113.009 65.4365 113.21 65.5486C113.411 65.6608 113.59 65.7985 113.748 65.9617C113.905 66.1248 114.032 66.3199 114.129 66.5468C114.225 66.7737 114.274 67.0427 114.274 67.3537C114.274 67.7412 114.201 68.0829 114.056 68.3786C113.912 68.6744 113.707 68.9217 113.443 69.1205C113.178 69.3194 112.866 69.4685 112.505 69.568C112.144 69.6674 111.753 69.7171 111.331 69.7171C111.077 69.7171 110.834 69.698 110.603 69.6598C110.372 69.6215 110.164 69.5731 109.981 69.5144C109.798 69.4558 109.646 69.3959 109.524 69.3347C109.402 69.2735 109.313 69.2161 109.257 69.1626C109.201 69.1091 109.158 69.0249 109.128 68.9102C109.097 68.7955 109.082 68.6259 109.082 68.4016C109.082 68.2537 109.087 68.1351 109.097 68.0459C109.107 67.9567 109.123 67.8853 109.143 67.8317C109.163 67.7782 109.189 67.7425 109.219 67.7247C109.25 67.7068 109.288 67.6979 109.333 67.6979C109.378 67.6979 109.44 67.7183 109.519 67.7591L109.581 67.7935C109.69 67.8572 109.826 67.9274 109.989 68.0038C110.152 68.0803 110.341 68.1517 110.557 68.218C110.773 68.2843 111.018 68.3174 111.293 68.3174C111.466 68.3174 111.619 68.2996 111.754 68.2639C111.889 68.2282 112.006 68.1772 112.105 68.1109C112.204 68.0446 112.279 67.9605 112.33 67.8585C112.38 67.7565 112.406 67.6393 112.406 67.5067C112.406 67.3537 112.359 67.2224 112.265 67.1128C112.171 67.0031 112.046 66.9075 111.891 66.8259C111.775 66.7648 111.647 66.7064 111.508 66.651L111.365 66.5965C111.17 66.5251 110.969 66.4461 110.763 66.3594C110.557 66.2727 110.356 66.1733 110.161 66.0611C109.965 65.9489 109.79 65.8112 109.635 65.6481C109.48 65.4849 109.355 65.2886 109.261 65.0591C109.167 64.8297 109.12 64.5543 109.12 64.2331C109.12 63.9067 109.184 63.6072 109.311 63.3344C109.438 63.0616 109.621 62.8283 109.859 62.6345C110.098 62.4407 110.389 62.2903 110.732 62.1832C111.075 62.0762 111.46 62.0226 111.887 62.0226ZM147.062 58.9182L147.171 58.9173C147.359 58.9173 147.514 58.9249 147.636 58.9402C147.758 58.9555 147.855 58.9772 147.926 59.0052C147.997 59.0333 148.048 59.0677 148.078 59.1085C148.109 59.1493 148.124 59.1952 148.124 59.2462V69.2812C148.124 69.3372 148.111 69.3844 148.086 69.4227C148.061 69.4609 148.017 69.4928 147.956 69.5183C147.895 69.5438 147.813 69.5616 147.709 69.5718C147.604 69.582 147.476 69.5871 147.324 69.5871C147.161 69.5871 147.029 69.582 146.927 69.5718C146.826 69.5616 146.743 69.5438 146.679 69.5183C146.616 69.4928 146.57 69.4609 146.542 69.4227C146.514 69.3844 146.5 69.3372 146.5 69.2812V68.5239C146.15 68.9013 145.782 69.1945 145.399 69.4035C145.015 69.6126 144.589 69.7171 144.122 69.7171C143.603 69.7171 143.165 69.6164 142.806 69.415C142.448 69.2136 142.156 68.9421 141.93 68.6004C141.704 68.2588 141.54 67.8598 141.438 67.4034C141.336 66.9471 141.286 66.4665 141.286 65.9617C141.286 65.3549 141.35 64.8093 141.48 64.3249C141.61 63.8404 141.799 63.4274 142.048 63.0858C142.297 62.7441 142.607 62.4815 142.978 62.298C143.349 62.1144 143.776 62.0226 144.259 62.0226C144.64 62.0226 144.986 62.1004 145.296 62.2559C145.606 62.4114 145.913 62.6396 146.218 62.9405V59.2462C146.218 59.1952 146.232 59.1493 146.26 59.1085C146.288 59.0677 146.339 59.0333 146.413 59.0052C146.486 58.9772 146.584 58.9555 146.706 58.9402C146.804 58.928 146.922 58.9206 147.062 58.9182ZM9.88682 59.468C10.1206 59.468 10.3544 59.4858 10.5882 59.5215C10.822 59.5572 11.0406 59.6057 11.2439 59.6668C11.4472 59.728 11.6276 59.7969 11.7851 59.8734C11.9427 59.9498 12.0469 60.0136 12.0977 60.0646C12.1485 60.1156 12.1829 60.1589 12.2006 60.1946C12.2184 60.2303 12.2337 60.2775 12.2464 60.3361C12.2591 60.3947 12.268 60.4687 12.2731 60.5579L12.2788 60.708L12.2807 60.8906C12.2807 61.0385 12.2769 61.1634 12.2693 61.2654C12.2616 61.3674 12.2489 61.4515 12.2311 61.5178C12.2133 61.5841 12.1879 61.6325 12.1549 61.6631C12.1219 61.6937 12.0774 61.709 12.0215 61.709C11.9749 61.709 11.9054 61.6842 11.8129 61.6347L11.7547 61.6019C11.6327 61.5306 11.4827 61.4528 11.3048 61.3687C11.127 61.2845 10.9211 61.208 10.6873 61.1392C10.4535 61.0704 10.1969 61.0359 9.91731 61.0359C9.69876 61.0359 9.50817 61.0627 9.34553 61.1163C9.18289 61.1698 9.04693 61.2437 8.93766 61.3381C8.82838 61.4324 8.74706 61.5459 8.69369 61.6784C8.64033 61.811 8.61364 61.9512 8.61364 62.0991C8.61364 62.3184 8.67336 62.5083 8.7928 62.6689C8.91224 62.8295 9.07234 62.9723 9.2731 63.0972C9.47386 63.2222 9.7013 63.3395 9.95543 63.4491C10.2096 63.5587 10.4688 63.6747 10.7331 63.7971C10.9974 63.9195 11.2566 64.0584 11.5107 64.2139C11.7648 64.3695 11.991 64.5556 12.1892 64.7723C12.3874 64.989 12.5475 65.244 12.6695 65.5372C12.7915 65.8304 12.8525 66.1758 12.8525 66.5735C12.8525 67.0937 12.7559 67.55 12.5628 67.9426C12.3696 68.3353 12.1079 68.6629 11.7775 68.9255C11.4472 69.1881 11.0609 69.3857 10.6187 69.5183C10.1765 69.6508 9.70385 69.7171 9.20068 69.7171C8.86014 69.7171 8.54376 69.6891 8.25151 69.633C7.95927 69.5769 7.70133 69.5093 7.4777 69.4303C7.25406 69.3513 7.06728 69.2684 6.91735 69.1817C6.76741 69.095 6.65941 69.0186 6.59334 68.9523C6.52726 68.886 6.48025 68.7904 6.45229 68.6654C6.42434 68.5405 6.41036 68.3608 6.41036 68.1262C6.41036 67.9681 6.41545 67.8356 6.42561 67.7285C6.43578 67.6214 6.45229 67.5347 6.47517 67.4684C6.49804 67.4021 6.52853 67.355 6.56665 67.3269C6.60477 67.2989 6.64924 67.2849 6.70007 67.2849C6.75936 67.2849 6.83896 67.3141 6.93884 67.3725L7.00121 67.4111C7.13081 67.4952 7.29727 67.5883 7.50057 67.6902C7.70387 67.7922 7.94656 67.8853 8.22864 67.9694C8.51072 68.0536 8.83727 68.0956 9.2083 68.0956C9.45226 68.0956 9.67081 68.0663 9.86395 68.0077C10.0571 67.949 10.221 67.8662 10.3557 67.7591C10.4904 67.652 10.5933 67.5194 10.6644 67.3614C10.7356 67.2033 10.7712 67.0274 10.7712 66.8336C10.7712 66.6092 10.7102 66.4168 10.5882 66.2561C10.4662 66.0955 10.3074 65.9527 10.1117 65.8278C9.91604 65.7029 9.69368 65.5856 9.44464 65.476C9.19559 65.3663 8.93893 65.2503 8.67463 65.128C8.41034 65.0056 8.15368 64.8666 7.90463 64.7111C7.65558 64.5556 7.43323 64.3695 7.23755 64.1528C7.04187 63.936 6.88304 63.6798 6.76106 63.3841C6.63908 63.0883 6.57809 62.7339 6.57809 62.3209C6.57809 61.8467 6.66576 61.4299 6.84111 61.0704C7.01646 60.7109 7.25279 60.4126 7.55012 60.1755C7.84745 59.9384 8.19814 59.7612 8.60221 59.6439C9.00627 59.5266 9.43447 59.468 9.88682 59.468ZM73.5269 62.0226C74.0606 62.0226 74.5168 62.0749 74.8954 62.1794C75.2741 62.2839 75.5854 62.4446 75.8293 62.6613C76.0733 62.878 76.2512 63.1572 76.363 63.4988C76.4748 63.8404 76.5307 64.2458 76.5307 64.7149V69.3041C76.5307 69.3755 76.5053 69.4316 76.4545 69.4724C76.4037 69.5132 76.3236 69.5425 76.2143 69.5603C76.1233 69.5752 75.996 69.5839 75.8326 69.5864L75.7302 69.5871C75.5015 69.5871 75.3351 69.5782 75.2309 69.5603C75.1267 69.5425 75.053 69.5132 75.0098 69.4724C74.9666 69.4316 74.945 69.3755 74.945 69.3041V68.761C74.6654 69.0619 74.3465 69.2965 73.9882 69.4647C73.6299 69.633 73.2322 69.7171 72.7951 69.7171C72.4342 69.7171 72.1026 69.67 71.8002 69.5756C71.4977 69.4813 71.236 69.3411 71.0149 69.155C70.7938 68.9688 70.6223 68.7381 70.5003 68.4628C70.3783 68.1874 70.3173 67.8662 70.3173 67.499C70.3173 67.1013 70.3948 66.7558 70.5498 66.4626C70.7049 66.1694 70.9361 65.9272 71.2436 65.736C71.5511 65.5448 71.9336 65.4033 72.391 65.3115C72.8484 65.2197 73.3795 65.1738 73.9844 65.1738H74.6476V64.7608C74.6476 64.5467 74.626 64.3593 74.5828 64.1986C74.5396 64.038 74.4685 63.9042 74.3694 63.7971C74.2703 63.69 74.1381 63.611 73.9729 63.56C73.8078 63.509 73.6032 63.4835 73.3592 63.4835C73.039 63.4835 72.7531 63.5192 72.5015 63.5906C72.25 63.662 72.0276 63.741 71.8345 63.8277C71.6413 63.9144 71.48 63.9934 71.3503 64.0648C71.2207 64.1362 71.1153 64.1719 71.034 64.1719C70.9781 64.1719 70.9285 64.154 70.8853 64.1183C70.8421 64.0826 70.8065 64.0317 70.7786 63.9654C70.7506 63.8991 70.729 63.8175 70.7138 63.7206C70.6985 63.6237 70.6909 63.5166 70.6909 63.3994C70.6909 63.2413 70.7036 63.1164 70.729 63.0246C70.7544 62.9328 70.8027 62.8499 70.8739 62.776C70.945 62.7021 71.0695 62.6205 71.2474 62.5313C71.4253 62.442 71.6337 62.3592 71.8726 62.2827C72.1115 62.2062 72.3719 62.1437 72.654 62.0953C72.9361 62.0468 73.2271 62.0226 73.5269 62.0226ZM33.7528 62.0226C34.2865 62.0226 34.7426 62.0749 35.1213 62.1794C35.4999 62.2839 35.8112 62.4446 36.0552 62.6613C36.2992 62.878 36.4771 63.1572 36.5889 63.4988C36.7007 63.8404 36.7566 64.2458 36.7566 64.7149V69.3041C36.7566 69.3755 36.7312 69.4316 36.6804 69.4724C36.6295 69.5132 36.5495 69.5425 36.4402 69.5603C36.3491 69.5752 36.2219 69.5839 36.0585 69.5864L35.9561 69.5871C35.7274 69.5871 35.5609 69.5782 35.4567 69.5603C35.3525 69.5425 35.2789 69.5132 35.2356 69.4724C35.1924 69.4316 35.1708 69.3755 35.1708 69.3041V68.761C34.8913 69.0619 34.5724 69.2965 34.2141 69.4647C33.8557 69.633 33.458 69.7171 33.0209 69.7171C32.6601 69.7171 32.3284 69.67 32.026 69.5756C31.7236 69.4813 31.4619 69.3411 31.2408 69.155C31.0197 68.9688 30.8481 68.7381 30.7262 68.4628C30.6042 68.1874 30.5432 67.8662 30.5432 67.499C30.5432 67.1013 30.6207 66.7558 30.7757 66.4626C30.9307 66.1694 31.162 65.9272 31.4695 65.736C31.777 65.5448 32.1594 65.4033 32.6169 65.3115C33.0743 65.2197 33.6054 65.1738 34.2102 65.1738H34.8735V64.7608C34.8735 64.5467 34.8519 64.3593 34.8087 64.1986C34.7655 64.038 34.6944 63.9042 34.5952 63.7971C34.4961 63.69 34.364 63.611 34.1988 63.56C34.0336 63.509 33.8291 63.4835 33.5851 63.4835C33.2649 63.4835 32.979 63.5192 32.7274 63.5906C32.4758 63.662 32.2535 63.741 32.0603 63.8277C31.8672 63.9144 31.7058 63.9934 31.5762 64.0648C31.4466 64.1362 31.3412 64.1719 31.2598 64.1719C31.2039 64.1719 31.1544 64.154 31.1112 64.1183C31.068 64.0826 31.0324 64.0317 31.0044 63.9654C30.9765 63.8991 30.9549 63.8175 30.9396 63.7206C30.9244 63.6237 30.9168 63.5166 30.9168 63.3994C30.9168 63.2413 30.9295 63.1164 30.9549 63.0246C30.9803 62.9328 31.0286 62.8499 31.0997 62.776C31.1709 62.7021 31.2954 62.6205 31.4733 62.5313C31.6512 62.442 31.8596 62.3592 32.0985 62.2827C32.3373 62.2062 32.5978 62.1437 32.8799 62.0953C33.162 62.0468 33.4529 62.0226 33.7528 62.0226ZM152.994 62.0226C153.528 62.0226 153.984 62.0749 154.363 62.1794C154.741 62.2839 155.053 62.4446 155.297 62.6613C155.541 62.878 155.719 63.1572 155.83 63.4988C155.942 63.8404 155.998 64.2458 155.998 64.7149V69.3041C155.998 69.3755 155.973 69.4316 155.922 69.4724C155.871 69.5132 155.791 69.5425 155.682 69.5603C155.591 69.5752 155.463 69.5839 155.3 69.5864L155.198 69.5871C154.969 69.5871 154.802 69.5782 154.698 69.5603C154.594 69.5425 154.52 69.5132 154.477 69.4724C154.434 69.4316 154.412 69.3755 154.412 69.3041V68.761C154.133 69.0619 153.814 69.2965 153.456 69.4647C153.097 69.633 152.7 69.7171 152.262 69.7171C151.902 69.7171 151.57 69.67 151.268 69.5756C150.965 69.4813 150.703 69.3411 150.482 69.155C150.261 68.9688 150.09 68.7381 149.968 68.4628C149.846 68.1874 149.785 67.8662 149.785 67.499C149.785 67.1013 149.862 66.7558 150.017 66.4626C150.172 66.1694 150.404 65.9272 150.711 65.736C151.018 65.5448 151.401 65.4033 151.858 65.3115C152.316 65.2197 152.847 65.1738 153.452 65.1738H154.115V64.7608C154.115 64.5467 154.093 64.3593 154.05 64.1986C154.007 64.038 153.936 63.9042 153.837 63.7971C153.738 63.69 153.606 63.611 153.44 63.56C153.275 63.509 153.071 63.4835 152.827 63.4835C152.506 63.4835 152.221 63.5192 151.969 63.5906C151.717 63.662 151.495 63.741 151.302 63.8277C151.109 63.9144 150.947 63.9934 150.818 64.0648C150.688 64.1362 150.583 64.1719 150.501 64.1719C150.445 64.1719 150.396 64.154 150.353 64.1183C150.309 64.0826 150.274 64.0317 150.246 63.9654C150.218 63.8991 150.196 63.8175 150.181 63.7206C150.166 63.6237 150.158 63.5166 150.158 63.3994C150.158 63.2413 150.171 63.1164 150.196 63.0246C150.222 62.9328 150.27 62.8499 150.341 62.776C150.412 62.7021 150.537 62.6205 150.715 62.5313C150.893 62.442 151.101 62.3592 151.34 62.2827C151.579 62.2062 151.839 62.1437 152.121 62.0953C152.403 62.0468 152.694 62.0226 152.994 62.0226ZM59.2884 62.0226C59.8221 62.0226 60.2783 62.0749 60.6569 62.1794C61.0356 62.2839 61.3469 62.4446 61.5908 62.6613C61.8348 62.878 62.0127 63.1572 62.1245 63.4988C62.2363 63.8404 62.2922 64.2458 62.2922 64.7149V69.3041C62.2922 69.3755 62.2668 69.4316 62.216 69.4724C62.1651 69.5132 62.0851 69.5425 61.9758 69.5603C61.8848 69.5752 61.7575 69.5839 61.5941 69.5864L61.4917 69.5871C61.263 69.5871 61.0965 69.5782 60.9924 69.5603C60.8882 69.5425 60.8145 69.5132 60.7713 69.4724C60.7281 69.4316 60.7065 69.3755 60.7065 69.3041V68.761C60.4269 69.0619 60.108 69.2965 59.7497 69.4647C59.3914 69.633 58.9936 69.7171 58.5565 69.7171C58.1957 69.7171 57.8641 69.67 57.5616 69.5756C57.2592 69.4813 56.9975 69.3411 56.7764 69.155C56.5553 68.9688 56.3838 68.7381 56.2618 68.4628C56.1398 68.1874 56.0788 67.8662 56.0788 67.499C56.0788 67.1013 56.1563 66.7558 56.3113 66.4626C56.4664 66.1694 56.6976 65.9272 57.0051 65.736C57.3126 65.5448 57.6951 65.4033 58.1525 65.3115C58.6099 65.2197 59.141 65.1738 59.7459 65.1738H60.4091V64.7608C60.4091 64.5467 60.3875 64.3593 60.3443 64.1986C60.3011 64.038 60.23 63.9042 60.1309 63.7971C60.0318 63.69 59.8996 63.611 59.7344 63.56C59.5692 63.509 59.3647 63.4835 59.1207 63.4835C58.8005 63.4835 58.5146 63.5192 58.263 63.5906C58.0114 63.662 57.7891 63.741 57.5959 63.8277C57.4028 63.9144 57.2414 63.9934 57.1118 64.0648C56.9822 64.1362 56.8768 64.1719 56.7954 64.1719C56.7395 64.1719 56.69 64.154 56.6468 64.1183C56.6036 64.0826 56.568 64.0317 56.54 63.9654C56.5121 63.8991 56.4905 63.8175 56.4752 63.7206C56.46 63.6237 56.4524 63.5166 56.4524 63.3994C56.4524 63.2413 56.4651 63.1164 56.4905 63.0246C56.5159 62.9328 56.5642 62.8499 56.6353 62.776C56.7065 62.7021 56.831 62.6205 57.0089 62.5313C57.1868 62.442 57.3952 62.3592 57.6341 62.2827C57.8729 62.2062 58.1334 62.1437 58.4155 62.0953C58.6976 62.0468 58.9886 62.0226 59.2884 62.0226ZM17.494 62.0226C18.0632 62.0226 18.5499 62.1068 18.954 62.275C19.358 62.4433 19.6897 62.6766 19.9489 62.9749C20.2081 63.2732 20.3987 63.6263 20.5206 64.0342C20.6426 64.4421 20.7036 64.8857 20.7036 65.3651V65.671C20.7036 65.9056 20.6515 66.0789 20.5473 66.1911C20.4431 66.3033 20.2996 66.3594 20.1166 66.3594H15.9769C15.9769 66.65 16.0112 66.9139 16.0798 67.151C16.1484 67.3881 16.2577 67.5895 16.4076 67.7553C16.5575 67.921 16.7507 68.0472 16.987 68.1339C17.2234 68.2205 17.5067 68.2639 17.8371 68.2639C18.1725 68.2639 18.4673 68.2397 18.7214 68.1912C18.9756 68.1428 19.1954 68.0892 19.3809 68.0306L19.5883 67.9627L19.7651 67.8997L19.8421 67.87C19.9641 67.8215 20.0632 67.7973 20.1395 67.7973C20.1852 67.7973 20.2233 67.8062 20.2538 67.8241C20.2843 67.8419 20.3097 67.8738 20.3301 67.9197C20.3504 67.9656 20.3644 68.0306 20.372 68.1147C20.3777 68.1778 20.3813 68.2531 20.3827 68.3406L20.3834 68.4322C20.3834 68.5443 20.3809 68.6399 20.3758 68.719C20.3707 68.798 20.3631 68.8656 20.3529 68.9217C20.3428 68.9778 20.3275 69.0249 20.3072 69.0632C20.2869 69.1014 20.2602 69.1384 20.2271 69.1741C20.1941 69.2098 20.1039 69.2582 19.9565 69.3194C19.8091 69.3806 19.621 69.4405 19.3923 69.4991C19.1636 69.5578 18.9019 69.6088 18.6071 69.6521C18.3123 69.6955 17.9972 69.7171 17.6617 69.7171C17.0569 69.7171 16.527 69.6406 16.0722 69.4877C15.6173 69.3347 15.2374 69.1027 14.9324 68.7916C14.6274 68.4806 14.4 68.088 14.2501 67.6138C14.1001 67.1395 14.0252 66.5837 14.0252 65.9464C14.0252 65.3396 14.1039 64.7927 14.2615 64.3057C14.4191 63.8188 14.6478 63.4057 14.9476 63.0667C15.2475 62.7276 15.6122 62.4688 16.0417 62.2903C16.4711 62.1119 16.9552 62.0226 17.494 62.0226ZM137.147 62.0226C137.61 62.0226 138 62.0991 138.317 62.2521C138.635 62.4051 138.892 62.6128 139.087 62.8754C139.283 63.138 139.424 63.4453 139.511 63.7971C139.597 64.1489 139.64 64.5722 139.64 65.0668V69.2812C139.64 69.3321 139.625 69.3768 139.594 69.415C139.564 69.4532 139.513 69.4851 139.442 69.5106C139.371 69.5361 139.273 69.5552 139.148 69.568C139.049 69.5782 138.931 69.5843 138.793 69.5863L138.687 69.5871C138.499 69.5871 138.343 69.5807 138.218 69.568C138.094 69.5552 137.996 69.5361 137.925 69.5106C137.854 69.4851 137.803 69.4532 137.772 69.415C137.742 69.3768 137.727 69.3321 137.727 69.2812V65.388C137.727 65.0566 137.702 64.7965 137.654 64.6079C137.606 64.4192 137.536 64.2573 137.445 64.1222C137.353 63.987 137.235 63.8825 137.09 63.8086C136.945 63.7346 136.776 63.6977 136.583 63.6977C136.339 63.6977 136.093 63.7869 135.844 63.9654C135.594 64.1438 135.335 64.4039 135.066 64.7455V69.2812C135.066 69.3321 135.051 69.3768 135.02 69.415C134.99 69.4532 134.938 69.4851 134.864 69.5106C134.79 69.5361 134.692 69.5552 134.57 69.568C134.473 69.5782 134.354 69.5843 134.214 69.5863L134.105 69.5871C133.917 69.5871 133.762 69.5807 133.64 69.568C133.518 69.5552 133.42 69.5361 133.347 69.5106C133.273 69.4851 133.221 69.4532 133.19 69.415C133.16 69.3768 133.145 69.3321 133.145 69.2812V62.4586C133.145 62.4076 133.157 62.363 133.183 62.3247C133.208 62.2865 133.254 62.2546 133.32 62.2291C133.386 62.2036 133.471 62.1845 133.575 62.1718C133.68 62.159 133.811 62.1526 133.968 62.1526L134.15 62.1557C134.234 62.1588 134.308 62.1641 134.372 62.1718C134.479 62.1845 134.561 62.2036 134.62 62.2291C134.678 62.2546 134.72 62.2865 134.746 62.3247C134.771 62.363 134.784 62.4076 134.784 62.4586V63.2464C135.16 62.8385 135.542 62.5325 135.931 62.3286C136.32 62.1246 136.725 62.0226 137.147 62.0226ZM127.097 59.5983L127.574 59.6001L127.939 59.6095C128.117 59.6171 128.255 59.635 128.355 59.663C128.454 59.6911 128.525 59.7331 128.568 59.7892C128.6 59.8313 128.629 59.8848 128.654 59.9498L131.728 68.7916C131.789 68.9752 131.827 69.1205 131.842 69.2276C131.858 69.3347 131.837 69.415 131.781 69.4685C131.726 69.5221 131.626 69.5552 131.484 69.568C131.389 69.5765 131.271 69.5821 131.128 69.585L130.897 69.5871C130.638 69.5871 130.436 69.5833 130.291 69.5756C130.146 69.568 130.036 69.5527 129.959 69.5297C129.883 69.5068 129.83 69.4749 129.799 69.4341C129.769 69.3933 129.743 69.3398 129.723 69.2735L129.06 67.2849H125.355L124.729 69.22C124.709 69.2914 124.682 69.3513 124.649 69.3997C124.616 69.4482 124.563 69.4864 124.489 69.5144C124.416 69.5425 124.311 69.5616 124.177 69.5718L124.034 69.58L123.867 69.5851L123.647 69.5871C123.413 69.5871 123.23 69.5795 123.098 69.5642C122.966 69.5489 122.874 69.5119 122.823 69.4532C122.773 69.3946 122.755 69.3117 122.77 69.2047C122.785 69.0976 122.823 68.9548 122.884 68.7763L125.926 59.9957C125.957 59.9091 125.992 59.8389 126.033 59.7854C126.074 59.7319 126.139 59.6911 126.227 59.663C126.316 59.635 126.44 59.6171 126.597 59.6095L126.872 59.6009L127.097 59.5983ZM116.826 62.1526C117.014 62.1526 117.169 62.1603 117.291 62.1756C117.413 62.1909 117.511 62.2126 117.585 62.2406C117.659 62.2686 117.711 62.3018 117.741 62.34C117.772 62.3783 117.787 62.4229 117.787 62.4739V69.2812C117.787 69.3321 117.772 69.3768 117.741 69.415C117.711 69.4532 117.659 69.4851 117.585 69.5106C117.511 69.5361 117.413 69.5552 117.291 69.568C117.194 69.5782 117.075 69.5843 116.935 69.5863L116.826 69.5871C116.638 69.5871 116.483 69.5807 116.361 69.568C116.239 69.5552 116.141 69.5361 116.068 69.5106C115.994 69.4851 115.942 69.4532 115.911 69.415C115.881 69.3768 115.866 69.3321 115.866 69.2812V62.4739C115.866 62.4229 115.881 62.3783 115.911 62.34C115.942 62.3018 115.994 62.2686 116.068 62.2406C116.141 62.2126 116.239 62.1909 116.361 62.1756C116.483 62.1603 116.638 62.1526 116.826 62.1526ZM106.461 62.1526C106.649 62.1526 106.804 62.1603 106.926 62.1756C107.048 62.1909 107.146 62.2126 107.219 62.2406C107.293 62.2686 107.345 62.3018 107.376 62.34C107.406 62.3783 107.421 62.4229 107.421 62.4739V69.2812C107.421 69.3321 107.406 69.3768 107.376 69.415C107.345 69.4532 107.293 69.4851 107.219 69.5106C107.146 69.5361 107.048 69.5552 106.926 69.568C106.828 69.5782 106.709 69.5843 106.57 69.5863L106.461 69.5871C106.273 69.5871 106.118 69.5807 105.996 69.568C105.874 69.5552 105.776 69.5361 105.702 69.5106C105.628 69.4851 105.576 69.4532 105.546 69.415C105.515 69.3768 105.5 69.3321 105.5 69.2812V62.4739C105.5 62.4229 105.515 62.3783 105.546 62.34C105.576 62.3018 105.628 62.2686 105.702 62.2406C105.776 62.2126 105.874 62.1909 105.996 62.1756C106.118 62.1603 106.273 62.1526 106.461 62.1526ZM91.7666 62.1526C91.9546 62.1526 92.1096 62.1603 92.2316 62.1756C92.3536 62.1909 92.4514 62.2126 92.5251 62.2406C92.5988 62.2686 92.6509 62.3018 92.6814 62.34C92.7119 62.3783 92.7272 62.4229 92.7272 62.4739V69.2812C92.7272 69.3321 92.7119 69.3768 92.6814 69.415C92.6509 69.4532 92.5988 69.4851 92.5251 69.5106C92.4514 69.5361 92.3536 69.5552 92.2316 69.568C92.134 69.5782 92.0153 69.5843 91.8754 69.5863L91.7666 69.5871C91.5785 69.5871 91.4235 69.5807 91.3015 69.568C91.1795 69.5552 91.0817 69.5361 91.008 69.5106C90.9343 69.4851 90.8822 69.4532 90.8517 69.415C90.8212 69.3768 90.806 69.3321 90.806 69.2812V62.4739C90.806 62.4229 90.8212 62.3783 90.8517 62.34C90.8822 62.3018 90.9343 62.2686 91.008 62.2406C91.0817 62.2126 91.1795 62.1909 91.3015 62.1756C91.4235 62.1603 91.5785 62.1526 91.7666 62.1526ZM26.4353 62.0226C26.8979 62.0226 27.2879 62.0991 27.6056 62.2521C27.9233 62.4051 28.1799 62.6128 28.3756 62.8754C28.5713 63.138 28.7123 63.4453 28.7987 63.7971C28.8851 64.1489 28.9283 64.5722 28.9283 65.0668V69.2812C28.9283 69.3321 28.9131 69.3768 28.8826 69.415C28.8521 69.4532 28.8013 69.4851 28.7301 69.5106C28.659 69.5361 28.5611 69.5552 28.4366 69.568C28.337 69.5782 28.2187 69.5843 28.0816 69.5863L27.9754 69.5871C27.7873 69.5871 27.631 69.5807 27.5065 69.568C27.382 69.5552 27.2841 69.5361 27.213 69.5106C27.1418 69.4851 27.091 69.4532 27.0605 69.415C27.03 69.3768 27.0148 69.3321 27.0148 69.2812V65.388C27.0148 65.0566 26.9906 64.7965 26.9423 64.6079C26.894 64.4192 26.8242 64.2573 26.7327 64.1222C26.6412 63.987 26.523 63.8825 26.3782 63.8086C26.2333 63.7346 26.0643 63.6977 25.8712 63.6977C25.6272 63.6977 25.3807 63.7869 25.1317 63.9654C24.8826 64.1438 24.6234 64.4039 24.354 64.7455V69.2812C24.354 69.3321 24.3388 69.3768 24.3083 69.415C24.2778 69.4532 24.2257 69.4851 24.152 69.5106C24.0783 69.5361 23.9805 69.5552 23.8585 69.568C23.7609 69.5782 23.6422 69.5843 23.5023 69.5863L23.3934 69.5871C23.2054 69.5871 23.0504 69.5807 22.9284 69.568C22.8064 69.5552 22.7086 69.5361 22.6349 69.5106C22.5612 69.4851 22.5091 69.4532 22.4786 69.415C22.4481 69.3768 22.4328 69.3321 22.4328 69.2812V62.4586C22.4328 62.4076 22.4456 62.363 22.471 62.3247C22.4964 62.2865 22.5421 62.2546 22.6082 62.2291C22.6743 62.2036 22.7594 62.1845 22.8636 62.1718C22.9678 62.159 23.0987 62.1526 23.2562 62.1526L23.438 62.1557C23.5221 62.1588 23.5962 62.1641 23.6603 62.1718C23.767 62.1845 23.8496 62.2036 23.9081 62.2291C23.9665 62.2546 24.0084 62.2865 24.0338 62.3247C24.0593 62.363 24.072 62.4076 24.072 62.4586V63.2464C24.4481 62.8385 24.8305 62.5325 25.2193 62.3286C25.6082 62.1246 26.0135 62.0226 26.4353 62.0226ZM42.8238 62.0226C43.2863 62.0226 43.6764 62.0991 43.994 62.2521C44.3117 62.4051 44.5683 62.6128 44.764 62.8754C44.9597 63.138 45.1007 63.4453 45.1871 63.7971C45.2736 64.1489 45.3168 64.5722 45.3168 65.0668V69.2812C45.3168 69.3321 45.3015 69.3768 45.271 69.415C45.2405 69.4532 45.1897 69.4851 45.1185 69.5106C45.0474 69.5361 44.9495 69.5552 44.825 69.568C44.7254 69.5782 44.6071 69.5843 44.4701 69.5863L44.3638 69.5871C44.1757 69.5871 44.0194 69.5807 43.8949 69.568C43.7704 69.5552 43.6726 69.5361 43.6014 69.5106C43.5302 69.4851 43.4794 69.4532 43.4489 69.415C43.4184 69.3768 43.4032 69.3321 43.4032 69.2812V65.388C43.4032 65.0566 43.379 64.7965 43.3307 64.6079C43.2825 64.4192 43.2126 64.2573 43.1211 64.1222C43.0296 63.987 42.9114 63.8825 42.7666 63.8086C42.6217 63.7346 42.4527 63.6977 42.2596 63.6977C42.0156 63.6977 41.7691 63.7869 41.5201 63.9654C41.2711 64.1438 41.0118 64.4039 40.7425 64.7455V69.2812C40.7425 69.3321 40.7272 69.3768 40.6967 69.415C40.6662 69.4532 40.6141 69.4851 40.5404 69.5106C40.4667 69.5361 40.3689 69.5552 40.2469 69.568C40.1493 69.5782 40.0306 69.5843 39.8907 69.5863L39.7819 69.5871C39.5938 69.5871 39.4388 69.5807 39.3168 69.568C39.1948 69.5552 39.097 69.5361 39.0233 69.5106C38.9496 69.4851 38.8975 69.4532 38.867 69.415C38.8365 69.3768 38.8213 69.3321 38.8213 69.2812V62.4586C38.8213 62.4076 38.834 62.363 38.8594 62.3247C38.8848 62.2865 38.9305 62.2546 38.9966 62.2291C39.0627 62.2036 39.1478 62.1845 39.252 62.1718C39.3562 62.159 39.4871 62.1526 39.6446 62.1526L39.8264 62.1557C39.9106 62.1588 39.9847 62.1641 40.0487 62.1718C40.1554 62.1845 40.238 62.2036 40.2965 62.2291C40.3549 62.2546 40.3969 62.2865 40.4223 62.3247C40.4477 62.363 40.4604 62.4076 40.4604 62.4586V63.2464C40.8365 62.8385 41.219 62.5325 41.6078 62.3286C41.9966 62.1246 42.4019 62.0226 42.8238 62.0226ZM74.6476 66.3823H73.9158C73.6057 66.3823 73.3414 66.4053 73.1229 66.4512C72.9043 66.4971 72.7264 66.5659 72.5892 66.6577C72.452 66.7495 72.3516 66.8604 72.2881 66.9904C72.2245 67.1204 72.1928 67.2696 72.1928 67.4378C72.1928 67.7234 72.283 67.9477 72.4634 68.1109C72.6439 68.2741 72.8942 68.3557 73.2144 68.3557C73.4837 68.3557 73.7315 68.2868 73.9577 68.1492C74.1839 68.0115 74.4138 67.8101 74.6476 67.5449V66.3823ZM60.4091 66.3823H59.6772C59.3672 66.3823 59.1029 66.4053 58.8844 66.4512C58.6658 66.4971 58.4879 66.5659 58.3507 66.6577C58.2135 66.7495 58.1131 66.8604 58.0496 66.9904C57.986 67.1204 57.9543 67.2696 57.9543 67.4378C57.9543 67.7234 58.0445 67.9477 58.2249 68.1109C58.4053 68.2741 58.6557 68.3557 58.9759 68.3557C59.2452 68.3557 59.493 68.2868 59.7192 68.1492C59.9454 68.0115 60.1753 67.8101 60.4091 67.5449V66.3823ZM154.115 66.3823H153.383C153.073 66.3823 152.809 66.4053 152.59 66.4512C152.372 66.4971 152.194 66.5659 152.057 66.6577C151.919 66.7495 151.819 66.8604 151.755 66.9904C151.692 67.1204 151.66 67.2696 151.66 67.4378C151.66 67.7234 151.75 67.9477 151.931 68.1109C152.111 68.2741 152.362 68.3557 152.682 68.3557C152.951 68.3557 153.199 68.2868 153.425 68.1492C153.619 68.0312 153.816 67.8663 154.015 67.6547L154.115 67.5449V66.3823ZM34.8735 66.3823H34.1416C33.8316 66.3823 33.5673 66.4053 33.3488 66.4512C33.1302 66.4971 32.9523 66.5659 32.8151 66.6577C32.6779 66.7495 32.5775 66.8604 32.514 66.9904C32.4504 67.1204 32.4187 67.2696 32.4187 67.4378C32.4187 67.7234 32.5089 67.9477 32.6893 68.1109C32.8697 68.2741 33.12 68.3557 33.4402 68.3557C33.7096 68.3557 33.9574 68.2868 34.1836 68.1492C34.4097 68.0115 34.6397 67.8101 34.8735 67.5449V66.3823ZM144.64 63.6518C144.391 63.6518 144.176 63.7142 143.996 63.8392C143.815 63.9641 143.671 64.1311 143.561 64.3401C143.452 64.5492 143.371 64.7825 143.317 65.04C143.264 65.2975 143.237 65.5614 143.237 65.8316C143.237 66.1172 143.26 66.3951 143.306 66.6653C143.352 66.9356 143.427 67.1765 143.531 67.3881C143.635 67.5997 143.773 67.7693 143.946 67.8968C144.119 68.0242 144.338 68.088 144.602 68.088C144.734 68.088 144.862 68.0689 144.987 68.0306C145.111 67.9924 145.238 67.9299 145.368 67.8432C145.498 67.7565 145.631 67.6431 145.768 67.5029C145.906 67.3626 146.056 67.1905 146.218 66.9866V64.7226C145.944 64.3758 145.681 64.1107 145.429 63.9271C145.177 63.7436 144.914 63.6518 144.64 63.6518ZM85.242 63.6518C84.9929 63.6518 84.7782 63.7142 84.5978 63.8392C84.4173 63.9641 84.2725 64.1311 84.1632 64.3401C84.0539 64.5492 83.9726 64.7825 83.9192 65.04C83.8659 65.2975 83.8392 65.5614 83.8392 65.8316C83.8392 66.1172 83.8621 66.3951 83.9078 66.6653C83.9536 66.9356 84.0285 67.1765 84.1327 67.3881C84.2369 67.5997 84.3754 67.7693 84.5482 67.8968C84.721 68.0242 84.9396 68.088 85.2039 68.088C85.336 68.088 85.4643 68.0689 85.5889 68.0306C85.7134 67.9924 85.8404 67.9299 85.97 67.8432C86.0997 67.7565 86.2331 67.6431 86.3703 67.5029C86.5075 67.3626 86.6575 67.1905 86.8201 66.9866V64.7226C86.5456 64.3758 86.2826 64.1107 86.031 63.9271C85.7794 63.7436 85.5164 63.6518 85.242 63.6518ZM127.2 61.5331H127.192L125.797 65.7398H128.595L127.2 61.5331ZM17.4483 63.3841C17.2043 63.3841 16.9921 63.43 16.8117 63.5217C16.6312 63.6135 16.4813 63.7372 16.3619 63.8927C16.2424 64.0482 16.1509 64.2318 16.0874 64.4434C16.0239 64.655 15.987 64.8806 15.9769 65.1203H18.8434C18.8587 64.5798 18.7507 64.1553 18.5194 63.8468C18.2881 63.5383 17.9311 63.3841 17.4483 63.3841ZM53.3801 59.4352C53.8071 59.4352 54.0968 59.5078 54.2492 59.6532C54.4017 59.7985 54.478 60.0572 54.478 60.4295C54.478 60.817 54.3992 61.0847 54.2416 61.2326C54.0841 61.3805 53.7918 61.4544 53.3649 61.4544C52.9329 61.4544 52.6419 61.383 52.492 61.2402C52.342 61.0975 52.2671 60.84 52.2671 60.4677C52.2671 60.0802 52.3446 59.8112 52.4996 59.6608C52.6546 59.5104 52.9481 59.4352 53.3801 59.4352ZM91.7742 59.1544C92.2011 59.1544 92.4908 59.227 92.6433 59.3724C92.7958 59.5177 92.872 59.7765 92.872 60.1487C92.872 60.5362 92.7932 60.8039 92.6357 60.9518C92.4781 61.0997 92.1859 61.1736 91.759 61.1736C91.3269 61.1736 91.036 61.1022 90.886 60.9595C90.7361 60.8167 90.6611 60.5592 90.6611 60.187C90.6611 59.7994 90.7386 59.5304 90.8937 59.38C91.0487 59.2296 91.3422 59.1544 91.7742 59.1544ZM106.468 59.1544C106.895 59.1544 107.185 59.227 107.337 59.3724C107.49 59.5177 107.566 59.7765 107.566 60.1487C107.566 60.5362 107.487 60.8039 107.33 60.9518C107.172 61.0997 106.88 61.1736 106.453 61.1736C106.021 61.1736 105.73 61.1022 105.58 60.9595C105.43 60.8167 105.355 60.5592 105.355 60.187C105.355 59.7994 105.433 59.5304 105.588 59.38C105.743 59.2296 106.036 59.1544 106.468 59.1544ZM116.834 59.1544C117.261 59.1544 117.551 59.227 117.703 59.3724C117.855 59.5177 117.932 59.7765 117.932 60.1487C117.932 60.5362 117.853 60.8039 117.695 60.9518C117.538 61.0997 117.246 61.1736 116.819 61.1736C116.387 61.1736 116.096 61.1022 115.946 60.9595C115.796 60.8167 115.721 60.5592 115.721 60.187C115.721 59.7994 115.798 59.5304 115.953 59.38C116.108 59.2296 116.402 59.1544 116.834 59.1544ZM24.3158 0C30.7203 0 37.5607 1.64126 44.0934 4.75473L44.261 4.82956L44.3386 4.99979C47.3663 11.4077 48.9631 18.2877 48.9631 24.9095C48.9631 31.3613 47.4958 37.8114 44.5939 44.0841L44.3183 44.6704L44.1498 44.7483C38.1188 47.6121 31.3178 49.1282 24.4835 49.1282C18.0324 49.1282 11.4032 47.5346 4.78262 44.382L4.62006 44.3019L4.54248 44.1358C1.5714 37.8438 0 30.9621 0 24.2291C0 17.5062 1.50681 10.9189 4.48002 4.63521L4.56173 4.46823L4.72717 4.38511C10.8519 1.47429 17.4401 0 24.3158 0ZM24.3158 1.0389C17.6592 1.0389 11.2789 2.45521 5.3396 5.24975C2.48868 11.3399 1.03755 17.7217 1.03755 24.2291C1.03755 30.7484 2.54536 37.4177 5.39531 43.519C11.8269 46.5544 18.2415 48.0874 24.4835 48.0874C31.1018 48.0874 37.6839 46.6356 43.5432 43.8845C46.4543 37.679 47.9292 31.2922 47.9292 24.9095C47.9292 18.5003 46.3893 11.8341 43.4767 5.61433C37.137 2.6243 30.5155 1.0389 24.3158 1.0389ZM22.6486 41.4999L24.1686 41.5661C24.887 41.6016 25.0748 42.1898 25.0526 42.7516C25.0314 43.0928 24.9254 43.4744 24.6288 43.6812C24.3854 43.8572 24.0726 43.8986 23.783 43.8845L23.2876 43.8572L23.1887 45.5207L22.4105 45.4693L22.6486 41.4999ZM121.285 3.88907L129.613 8.29841L123.572 19.2991C121.292 17.4413 118.507 16.0743 114.955 16.0743C106.548 16.0743 103.133 22.361 103.133 26.7897C103.133 30.0773 105.279 34.9271 112.759 34.9271C115.899 34.9271 120.362 32.736 121.647 31.7388L115.673 44.5011L114.872 44.6656L113.103 45.0465C111.918 45.2966 110.987 45.4526 109.478 45.4995C96.0896 45.9004 90.6794 37.6488 90.6834 29.2176C90.6926 18.071 100.57 4.5158 116.945 4.5158C117.948 4.5158 119.176 4.86396 120.225 5.24975L121.285 3.88907ZM29.8604 41.4343C30.0129 41.6206 30.0715 41.778 30.1059 42.0036L30.1178 42.0916C30.1674 42.4316 30.0693 42.8243 29.688 43.0198V43.032C30.1137 43.032 30.3711 43.3391 30.4458 43.8572L30.4627 44.0351C30.472 44.1586 30.4771 44.3136 30.4568 44.4515C30.3703 44.976 30.0583 45.1452 29.5314 45.2191L28.2295 45.3963L27.6867 41.4212L28.9976 41.2218C29.3166 41.1781 29.705 41.2339 29.8604 41.4343ZM18.9155 41.0839L19.713 41.1751L19.3596 43.9787L19.3502 44.0761C19.3309 44.3404 19.3711 44.6282 19.7887 44.6704C20.2518 44.7058 20.3568 44.3979 20.4092 44.015L20.7475 41.3048L21.5385 41.397L21.1975 44.1729C21.0319 45.053 20.6929 45.4375 19.7281 45.3175C18.7461 45.193 18.513 44.7443 18.5724 43.8572L18.9155 41.0839ZM14.4611 44.3714L15.3138 40.423L16.6773 40.7317C17.4754 40.9048 17.7166 41.2611 17.6037 41.9952C17.5424 42.3943 17.3535 42.8225 16.9039 42.8352L16.8395 42.8335L16.8928 42.8536C17.2284 42.9927 17.275 43.1868 17.2228 43.498L17.2101 43.5666C17.1777 43.7258 16.9557 44.6907 17.1092 44.8461L17.1142 44.9649L16.2866 44.7483C16.2676 44.5997 16.2952 44.3852 16.3316 44.1783L16.4462 43.5717C16.4799 43.3649 16.4858 43.1389 16.2986 43.041C16.112 42.9411 16.0425 42.9458 15.8316 42.8974L15.6165 42.8537L15.2612 44.5451L14.4611 44.3714ZM33.5244 41.3094L33.5521 41.4009C33.5803 41.499 33.6156 41.5963 33.6289 41.6954L32.9103 41.8443L32.8597 41.6887L32.8222 41.5836C32.7411 41.3719 32.6194 41.1652 32.3945 41.1911C31.8142 41.2611 32.0061 41.9851 32.0657 42.288L32.3021 43.4749C32.3742 43.7998 32.5231 44.2212 32.9769 44.1296C33.3846 44.0475 33.2069 43.4109 33.1708 43.1496L33.9073 43.0055C33.9175 43.0794 33.9295 43.1617 33.9336 43.2356C34.0397 43.9605 33.9073 44.561 33.0949 44.7261C31.9303 44.9507 31.6788 44.2542 31.4722 43.2561L31.3401 42.5947L31.2981 42.3275L31.2753 42.1567C31.1816 41.3741 31.2812 40.7976 32.2745 40.599C32.9031 40.4841 33.3286 40.7175 33.5244 41.3094ZM29.0209 43.4631L28.7342 43.5077L28.9159 44.7067L29.2279 44.6637C29.3298 44.6487 29.4272 44.6276 29.5093 44.5751C29.6981 44.4515 29.6808 44.1873 29.6546 43.9908C29.589 43.5596 29.477 43.3957 29.0209 43.4631ZM65.884 4.23419L77.0741 4.21871L81.3855 4.22736C81.8374 4.22926 82.2601 4.23153 82.646 4.23419C88.9507 4.26959 92.5133 7.70307 92.5133 12.6623C92.5133 17.2348 88.756 21.2817 84.6313 23.3744C88.8779 24.9407 89.245 28.7852 89.245 31.5047C89.2451 38.0761 82.6734 44.2158 74.1301 44.2158H55.4994L62.7669 16.0633L59.7817 16.0459L65.884 4.23419ZM154.539 4.23419L156.25 44.2158H143.519L143.512 37.359H134.831L131.973 44.2158H118.166L132.601 15.6653L129.346 15.6442L135.531 4.23419H154.539ZM35.7764 39.7993L37.7999 43.3771L37.0401 43.605L36.5607 42.6959L35.717 42.9501L35.8259 43.9839L35.06 44.2084L34.8116 40.0947L35.7764 39.7993ZM12.9491 39.7313C13.5658 39.9043 13.9482 40.1769 13.9301 40.8956C13.9271 41.0557 13.8745 41.2188 13.8402 41.3766L13.1228 41.1781L13.1507 41.0556C13.2231 40.7167 13.2248 40.4503 12.7887 40.3156C12.2254 40.1604 12.0884 40.8459 12.0106 41.1419L11.6924 42.3167L11.6669 42.4276C11.6058 42.7323 11.612 43.0963 12.0106 43.2062C12.4204 43.3165 12.6687 42.9134 12.817 42.3243L12.3154 42.1907L12.4889 41.567L13.6687 41.9476L13.1087 44.0263L12.5657 43.8784L12.6878 43.4389H12.6726C12.4223 43.7983 12.1174 43.836 11.8502 43.7845C10.742 43.4839 10.7833 42.7827 11.0258 41.842L11.2244 41.0982L11.3066 40.8406L11.3626 40.6777C11.6284 39.9357 11.9713 39.4624 12.9491 39.7313ZM23.3833 42.1038L23.3098 43.2517L23.7124 43.2741C24.0394 43.2862 24.2563 43.1565 24.2846 42.6747C24.3007 42.2119 24.1261 42.1332 23.7023 42.1146L23.3833 42.1038ZM28.9272 41.7787L28.5182 41.8443L28.6536 42.8629L28.7989 42.8477L28.9215 42.8283C29.07 42.803 29.2292 42.7616 29.3053 42.6331L29.3404 42.561C29.3806 42.4762 29.4128 42.3809 29.379 42.1898C29.3289 41.9173 29.2415 41.7417 28.9272 41.7787ZM15.9769 41.1751L15.7526 42.2422L16.2916 42.3879C16.6186 42.4355 16.8003 42.2655 16.865 41.8689C16.9234 41.5051 16.8477 41.3632 16.5542 41.2928L15.9769 41.1751ZM35.4464 40.4442L35.6463 42.2858L36.2558 42.1084L35.4464 40.4442ZM24.0006 4.46739L24.2106 4.46283L24.2629 4.46348C28.4356 4.53184 32.0089 7.32966 31.9931 12.1277C31.9858 16.2132 28.7142 18.4002 27.5352 19.9625C25.7682 22.3164 24.7782 24.9966 24.7146 29.2611L24.6993 30.6283L24.693 31.8719C24.689 33.4098 24.6987 34.8603 24.7091 35.9362L24.7247 37.2971H23.7881L23.7538 32.8741L23.7424 31.9085C23.7315 31.087 23.7171 30.2281 23.6974 29.3664C23.5984 25.1028 22.6426 22.3164 20.8765 19.9625C19.7078 18.4002 16.433 16.2131 16.4197 12.1277C16.4071 7.39039 19.8922 4.60299 24.0006 4.46739ZM34.4781 16.5888L34.5857 16.5999C37.0532 16.8145 39.1189 17.8241 40.232 20.7279C41.2606 23.4342 40.3352 27.0336 36.9178 27.878L36.3666 28.0165L35.8093 28.1606C32.8139 28.9479 30.9606 29.652 29.574 30.6047C27.6815 31.9078 26.2435 34.3986 26.1991 37.2932L25.3927 37.2902L25.391 31.1816L25.4035 29.8823C25.4074 29.6802 25.4121 29.5325 25.418 29.4535C25.377 21.7432 30.9048 16.2817 34.4781 16.5888ZM39.9909 27.0489C40.9234 27.9875 41.092 30.0973 40.9286 31.3307C40.7347 32.7573 39.0766 35.1092 36.5788 35.2013C35.305 35.2529 33.7428 34.9891 32.724 34.7856L32.1856 34.6739C30.5931 34.3277 28.057 35.3319 27.6525 37.2902L26.9204 37.2932C26.9075 34.7833 28.3032 32.5638 30.123 31.3711C31.7487 30.317 33.9246 29.6245 37.4274 28.7325C38.5134 28.4542 39.6457 27.8365 39.9909 27.0489ZM22.9959 29.4535L23.0008 29.5396L23.0109 29.8938C23.0265 30.696 23.0286 32.3333 23.0274 33.9299L23.0231 37.2902L22.3175 37.2932C22.2765 34.3986 20.7302 31.9078 18.8358 30.6047C17.2899 29.5397 15.1532 28.7852 11.495 27.878C8.07355 27.0336 7.1534 23.4342 8.18266 20.7279C9.27012 17.8833 11.2766 16.8565 13.6775 16.614L13.8281 16.5999C17.3937 16.1716 23.0382 21.6653 22.9959 29.4535ZM8.41782 27.0489C8.76895 27.8365 9.90247 28.4542 10.9862 28.7325L11.8589 28.9578L12.4268 29.1089C15.1097 29.8325 16.9003 30.4696 18.2849 31.3711C20.0662 32.5354 21.4395 34.6782 21.4927 37.1144L21.4943 37.2932L20.7565 37.2902C20.3622 35.3727 17.9292 34.3699 16.3272 34.654L15.8515 34.7523L15.4922 34.8238C14.4771 35.0205 13.0343 35.2498 11.839 35.2013C9.33609 35.1092 7.67398 32.7573 7.48425 31.3307C7.32083 30.0973 7.4894 27.9875 8.41782 27.0489ZM75.7291 27.5096H71.224L69.5186 34.0806H73.8803C75.5959 34.0806 77.9342 33.226 78.5072 31.0875C79.0732 28.9432 77.4386 27.5096 75.7291 27.5096ZM143.429 16.4653L138.521 28.0947H143.577L143.429 16.4653ZM74.3725 14.7419L73.0808 20.4443H76.4607C77.7648 20.4443 80.0675 20.1132 80.6431 17.581C81.274 14.832 79.1129 14.7581 78.0764 14.7581L74.3725 14.7419Z" fill="#0066AE"/>
</g>
<defs>
<clipPath id="clip0_313_226">
<rect width="156.25" height="50" fill="white"/>
</clipPath>
</defs>
</svg>
