<svg width="150" height="44" viewBox="0 0 150 44" fill="none" xmlns="http://www.w3.org/2000/svg">
<path fill-rule="evenodd" clip-rule="evenodd" d="M0 15.2402L12.6434 31.1894L0 41.6664V15.2402Z" fill="#F15A23"/>
<path fill-rule="evenodd" clip-rule="evenodd" d="M5.08856 41.6664L14.6021 33.7078L21.1777 41.6664H5.08856Z" fill="#F15A23"/>
<path fill-rule="evenodd" clip-rule="evenodd" d="M0 6.706L3.29947 10.8797L16.8656 27.8317L21.2616 24.3311C21.2616 24.3311 17.6122 20.0347 15.1617 15.2402C10.3709 5.86657 13.7627 0.0305176 13.7627 0.0305176H0V6.706Z" fill="#F15A23"/>
<path fill-rule="evenodd" clip-rule="evenodd" d="M18.7993 30.4487L23.2763 26.7507C23.2763 26.7507 27.5521 32.3792 32.51 33.7077C39.0071 35.4486 41.8837 31.1894 41.8837 31.1894V41.6663H27.6133L30.8312 38.8842C30.8312 38.8842 29.1523 40.0035 25.0463 37.1594C22.6229 35.4808 18.7993 30.4487 18.7993 30.4487Z" fill="#F15A23"/>
<path fill-rule="evenodd" clip-rule="evenodd" d="M19.2109 0C19.2109 0 17.7826 1.9456 18.7993 6.70601C19.8859 11.7942 24.2075 17.1796 24.1974 17.059C24.1974 17.059 24.4753 11.7116 27.6133 8.57359C34.3021 1.88483 41.8837 5.86658 41.8837 5.86658V0.0305276L19.2109 0Z" fill="#F15A23"/>
<path fill-rule="evenodd" clip-rule="evenodd" d="M41.8837 12.9178C41.8837 12.9178 37.6537 9.29468 33.9762 9.29468C29.2718 9.29468 26.7039 13.3561 26.7039 16.3023C26.7039 20.5936 28.7637 22.978 30.8312 25.0455C33.8022 28.0165 37.4167 31.2208 41.8837 28.6418C41.8837 23.7607 41.8837 12.9178 41.8837 12.9178Z" fill="#F15A23"/>
<path fill-rule="evenodd" clip-rule="evenodd" d="M90.0567 0.436523H100.038C100.038 0.436523 108.881 13.8253 113.227 19.357C117.572 24.8887 122.25 31.1895 122.25 31.1895C122.25 31.1895 122.25 12.9179 122.25 3.43493C122.25 2.23624 119.102 0.436523 119.102 0.436523H130.613C130.613 0.436523 126.836 1.98823 126.836 3.43493C126.836 15.2403 126.836 43.8113 126.836 43.8113C126.836 43.8113 123.212 41.8016 119.102 37.0263C114.485 31.6609 98.06 9.99946 98.06 9.99946C98.06 9.99946 98.06 30.4487 98.06 38.0561C98.06 39.493 101.207 41.6664 101.207 41.6664H90.0567C90.0567 41.6664 93.1141 39.4754 93.1141 38.0561C93.1141 27.8318 93.1141 12.9179 93.1141 3.43493C93.1141 2.1608 90.0567 0.436523 90.0567 0.436523Z" fill="#005E6A"/>
<path fill-rule="evenodd" clip-rule="evenodd" d="M137.06 0.436523H149.87C149.87 0.436523 146.43 2.06595 146.43 3.43493C146.43 12.9179 146.43 28.6419 146.43 38.0561C146.43 39.5521 149.87 41.6664 149.87 41.6664H137.06C137.06 41.6664 140.262 39.5039 140.262 38.0561C140.262 26.7508 140.262 12.9179 140.262 3.43493C140.262 2.11877 137.06 0.436523 137.06 0.436523Z" fill="#005E6A"/>
<path fill-rule="evenodd" clip-rule="evenodd" d="M52.3658 0.436523C52.3658 0.436523 55.6872 2.09257 55.6872 3.43493C55.6872 12.9179 55.6872 26.7508 55.6872 38.0561C55.6872 39.5278 52.3658 41.6664 52.3658 41.6664C52.3658 41.6664 68.9583 41.6664 71.3448 41.6664C72.531 41.6664 85.8163 39.494 85.8163 29.2516C85.8163 19.0092 75.4965 18.0501 75.4965 18.0501C75.4965 18.0501 81.7833 16.3024 81.7833 9.29477C81.7833 1.74133 72.531 0.436523 71.3448 0.436523C68.8797 0.436523 52.3658 0.436523 52.3658 0.436523ZM62.4484 17.3714V4.48165C62.4484 4.48165 67.9497 4.48165 70.1586 4.48165C71.3448 4.48165 75.4965 5.86661 75.4965 11.005C75.4965 15.2403 71.3448 17.3714 70.1586 17.3714C67.4694 17.3714 62.4484 17.3714 62.4484 17.3714ZM62.4484 20.752C62.4484 20.752 70.1586 20.752 71.3448 20.752C72.531 20.752 79.5295 22.5699 79.5295 28.6419C79.5295 34.8325 72.531 37.0263 71.3448 37.0263C70.1586 37.0263 62.4484 37.0263 62.4484 37.0263V20.752Z" fill="#005E6A"/>
</svg>
