<svg width="133" height="50" viewBox="0 0 133 50" fill="none" xmlns="http://www.w3.org/2000/svg">
<path d="M80.698 22.6396C80.9771 22.3605 81.3069 22.0009 81.6873 21.5609C82.0668 21.1209 82.4264 20.6014 82.7661 20.0014C83.1058 19.4015 83.3958 18.733 83.6352 17.993C83.8756 17.2539 83.9958 16.4643 83.9958 15.6249C83.9958 13.987 83.7157 12.4583 83.1564 11.0388C82.5962 9.6204 81.737 8.38075 80.5778 7.32089C79.4186 6.26302 77.9704 5.43262 76.2311 4.83266C74.4928 4.2337 72.4635 3.93372 70.1461 3.93372H70.0826H63.4195H61.6852H54.8572V11.5762V38.0339V45.9019H71.645C74.0826 45.9019 76.2103 45.5721 78.03 44.9125C79.8477 44.253 81.3576 43.3441 82.5565 42.1849C83.7554 41.0257 84.6444 39.6768 85.2245 38.1382C85.8036 36.5996 86.0936 34.9507 86.0936 33.1915C86.0936 30.8334 85.5543 28.7356 84.4755 26.896C83.3958 25.0583 82.1363 23.6389 80.698 22.6396ZM73.275 11.6239C73.8402 11.8394 74.3121 12.1195 74.6806 12.4722C75.6351 13.388 76.1129 14.4826 76.1129 15.756C76.1129 16.9113 75.9133 17.8658 75.5159 18.6217C75.1176 19.3786 74.7193 19.9557 74.322 20.3531H62.6516V11.1282H69.9058C71.2656 11.1282 72.385 11.2961 73.275 11.6239ZM72.0642 27.6161C74.177 27.6161 75.7424 28.1634 76.7615 29.256C77.7201 30.3318 78.2028 31.6012 78.2028 33.0703C78.2028 34.5841 77.6555 35.8764 76.5609 36.9512C75.4653 38.0259 73.6654 38.5643 71.1573 38.5643H70.2206H62.6516V27.6161H72.0642Z" fill="#00529C"/>
<path d="M114.556 27.8257C115.814 26.9665 116.864 25.9672 117.704 24.8279C118.543 23.6886 119.162 22.4301 119.562 21.0513C119.961 19.6716 120.162 18.2631 120.162 16.8238C120.162 14.9455 119.851 13.2171 119.232 11.6378C118.612 10.0594 117.683 8.7006 116.444 7.56127C115.204 6.42195 113.656 5.53294 111.797 4.89325C109.939 4.25456 107.79 3.93372 105.353 3.93372H105.133H88.9852H88.8342V45.9019H96.7797V30.3139H101.21L112.167 45.9019H121.48L110.15 29.7746C111.827 29.3355 113.296 28.6859 114.556 27.8257ZM105.412 11.1282C105.912 11.1282 106.384 11.161 106.833 11.2176C108.249 11.4312 109.407 11.9368 110.299 12.7404C111.512 13.836 112.119 15.1789 112.119 16.7702C112.119 17.5678 111.989 18.3436 111.731 19.0995C111.472 19.8564 111.064 20.5229 110.507 21.099C109.949 21.6771 109.233 22.144 108.358 22.5026C107.482 22.8612 106.427 23.0399 105.193 23.0399H96.7797V11.1282H105.412Z" fill="#00529C"/>
<path d="M124.286 3.93372V3.94564C124.206 3.94366 124.127 3.93372 124.047 3.93372H123.979V3.9367V19.32V30.3427V45.9019H132.081V3.93372H124.286Z" fill="#00529C"/>
<path d="M7.744 49.9654C6.76567 49.8514 6.00539 49.6201 5.09783 49.1601C2.73812 47.9645 0.96838 45.9023 0.30084 43.5705C-0.0251062 42.4324 -0.00710554 43.5276 0.00534674 25.5682L0.0692969 8.51468C0.150751 7.38458 0.322486 6.64815 0.777258 5.48064C1.59666 3.37809 2.93749 1.90289 4.91622 0.926573C6.02914 0.377465 7.09268 0.101203 8.39284 0.0233143C8.84232 -0.00339765 16.176 -0.00779053 25.7499 0.0134293C44.0737 0.0541213 42.5597 0.0233145 43.7059 0.379463C44.2332 0.543239 45.2081 1.00493 45.804 1.37296C47.8962 2.6652 49.4113 4.76774 49.8632 7.00595C49.9519 7.44563 49.9564 8.31665 49.9564 24.705L49.8638 42.5308C49.5675 44.4144 48.6907 46.0552 47.1588 47.5924C45.9593 48.7961 44.8519 49.4591 43.3819 49.8537L42.8476 49.9972L25.4905 50.0042C15.9441 50.0082 7.95804 49.9903 7.744 49.9654ZM14.9873 44.8315C15.7357 44.5769 16.661 43.9517 17.417 43.1896C18.0108 42.5911 18.4766 41.9418 18.8007 41.2615C19.1779 40.4697 19.2702 40.0878 19.3014 39.1888C19.3468 37.8794 19.1572 36.788 18.728 35.8852C18.2121 34.8003 17.5346 34.0012 14.4381 30.8254C11.0998 27.4016 10.139 26.3782 9.41653 25.4768C9.19967 25.2064 9.14101 25.0963 9.16438 25.0061C9.27571 24.5793 10.4167 23.4072 13.3262 20.7299C16.3886 17.912 17.3528 16.9041 18.4069 15.4193C19.064 14.4939 19.5344 13.4131 19.702 12.444C19.8051 11.8489 19.8055 10.7306 19.704 10.13C19.484 8.84071 18.8019 7.55365 17.9029 6.73298C16.6256 5.56723 15.3724 5.02965 13.5811 4.8794C12.813 4.81504 9.66514 4.85434 8.88641 4.93811C7.1457 5.12543 5.52804 6.34766 5.117 7.78626C5.03506 8.07287 5.02719 8.95437 5.01028 19.6829L5.03854 36.7103C5.08898 42.7718 5.06386 42.3836 5.45688 42.9977C5.72558 43.4163 6.29191 44.0164 6.68768 44.3011C7.08345 44.5858 7.46254 44.763 7.95974 44.8961C8.32296 44.9933 8.50714 44.998 11.4564 44.9865L14.5699 44.9743L14.9873 44.8315ZM41.5828 44.9103C41.3861 44.5427 39.9565 43.0459 36.4981 39.5873C32.5545 35.6433 22.3011 25.0836 22.2836 24.9479C22.2372 24.5913 24.0573 22.6693 26.3725 20.6292C27.6916 19.467 29.5941 17.6255 30.7518 16.3905C33.0533 13.9351 33.6387 13.0736 33.8464 11.8364C33.9478 11.2339 33.9376 9.84857 33.8294 9.41158C33.7092 8.92719 33.5081 8.43232 33.2529 7.99145C32.9731 7.50882 31.9397 6.4579 31.3804 6.08787C30.5921 5.56629 29.6287 5.15343 28.734 4.95353C28.2993 4.85646 25.2215 4.79457 24.2161 4.8627L23.5899 4.90519L23.6335 5.07356C23.6589 5.16615 23.9194 5.6049 24.2156 6.0487C24.5118 6.49251 24.847 7.05244 24.9605 7.29305C25.5615 8.56835 25.8413 10.1577 25.7865 11.9848C25.7419 13.4671 25.5287 14.3388 24.8936 15.6344C24.0105 17.436 22.8229 18.8308 20.1983 21.1501C18.6673 22.5028 17.4373 23.7341 16.8653 24.4864L16.4641 25.014L19.4858 28.2152L23.9313 32.9922C25.1756 34.4924 25.796 35.8314 26.0364 37.5359C26.1502 38.3415 26.1381 39.8788 26.0111 40.6156C25.8184 41.7463 25.401 42.7339 24.6263 43.8923C24.3814 44.2579 24.1234 44.6573 24.0523 44.7795L23.923 45.0019H32.7769L41.5819 44.9104L41.5828 44.9103ZM45.0852 26.7452L44.874 9.24698C44.4452 6.40849 43.2936 5.21791 40.7051 4.93694C40.0948 4.8707 36.9061 4.8574 36.9061 4.92096C36.9061 5.01662 37.2612 5.51549 37.7354 6.08601C38.3176 6.78631 38.5868 7.17258 38.8264 7.65133C39.36 8.71754 39.5194 9.882 39.4031 11.8624C39.297 13.6696 39.0852 14.4595 38.4147 15.5493C37.465 17.0931 36.218 18.4208 32.8573 21.4667C30.8733 23.2649 29.5521 24.6588 29.6004 24.9028C29.6064 24.945 33.0948 28.5181 37.3472 32.8426L45.0788 40.7054L45.0957 40.4603C45.1069 40.3255 45.0982 34.1536 45.0843 26.7451L45.0852 26.7452Z" fill="#00529C"/>
</svg>
