<svg width="166" height="50" viewBox="0 0 166 50" fill="none" xmlns="http://www.w3.org/2000/svg">
<mask id="mask0_313_102" style="mask-type:luminance" maskUnits="userSpaceOnUse" x="0" y="0" width="166" height="50">
<path d="M0 50H165.807V0H0V50Z" fill="white"/>
</mask>
<g mask="url(#mask0_313_102)">
<path d="M0.176029 34.8691C0.176029 32.466 0.130209 30.45 0.000549316 28.6513H4.54742L4.76092 31.7388H4.88765C5.91616 30.1068 7.80451 28.1765 11.32 28.1765C14.0643 28.1765 16.2071 29.7266 17.1069 32.039H17.1946C17.9268 30.8799 18.7827 30.0259 19.7664 29.4234C20.9236 28.6094 22.2543 28.1765 23.972 28.1765C27.4407 28.1765 30.9532 30.5358 30.9532 37.2284V49.5305H25.8097V37.9966C25.8097 34.525 24.6106 32.466 22.0847 32.466C20.2801 32.466 18.9484 33.7539 18.3947 35.2552C18.266 35.769 18.1364 36.4114 18.1364 37.009V49.5305H12.9899V37.4399C12.9899 34.525 11.8337 32.466 9.39065 32.466C7.41748 32.466 6.09066 34.0093 5.61882 35.4648C5.40532 35.9834 5.31465 36.582 5.31465 37.1825V49.5305H0.176029V34.8691Z" fill="#003A70"/>
<path d="M45.8518 39.3289C42.1209 39.2412 38.5645 40.0532 38.5645 43.2284C38.5645 45.2835 39.8942 46.2301 41.5662 46.2301C43.6631 46.2301 45.2103 44.8584 45.6773 43.3581C45.8069 42.973 45.8518 42.5421 45.8518 42.2009V39.3289ZM50.9953 44.5153C50.9953 46.4007 51.082 48.2374 51.2985 49.5301H46.5381L46.1959 47.2138H46.0623C44.7784 48.8438 42.5927 50 39.8942 50C35.6905 50 33.3342 46.9623 33.3342 43.7831C33.3342 38.51 38.0039 35.8544 45.7221 35.8963V35.5532C45.7221 34.1805 45.1635 31.9081 41.4804 31.9081C39.4204 31.9081 37.2737 32.5544 35.8621 33.4542L34.8317 30.0256C36.3749 29.0789 39.0783 28.1762 42.3792 28.1762C49.0679 28.1762 50.9953 32.4247 50.9953 36.9677V44.5153Z" fill="#003A70"/>
<path d="M54.6433 34.8691C54.6433 32.466 54.5955 30.45 54.4707 28.6513H59.0965L59.3549 31.7807H59.4816C60.3814 30.1546 62.6568 28.1765 66.1264 28.1765C69.7745 28.1765 73.5463 30.5358 73.5463 37.1387V49.5305H68.2712V37.7412C68.2712 34.7395 67.1559 32.466 64.2849 32.466C62.184 32.466 60.7295 33.9644 60.1689 35.5525C60.0012 36.0263 59.9554 36.6707 59.9554 37.2644V49.5305H54.6433V34.8691Z" fill="#003A70"/>
<path d="M91.1344 37.3523C91.1344 36.9262 91.0905 36.4115 91.0067 35.9825C90.5339 33.9245 88.8639 32.2536 86.4618 32.2536C83.075 32.2536 81.1896 35.2562 81.1896 39.1568C81.1896 42.9725 83.075 45.7626 86.4208 45.7626C88.5617 45.7626 90.45 44.3032 90.9628 42.0307C91.0905 41.5579 91.1344 41.0393 91.1344 40.4826V37.3523ZM96.4066 20.2625V43.6559C96.4066 45.7987 96.4943 48.116 96.5781 49.5286H91.8626L91.652 46.2305H91.5643C90.3213 48.542 87.7857 50.0004 84.746 50.0004C79.774 50.0004 75.8287 45.7626 75.8287 39.3293C75.7867 32.3384 80.1611 28.1766 85.1769 28.1766C88.0469 28.1766 90.1069 29.3787 91.0486 30.9277H91.1344V20.2625H96.4066Z" fill="#003A70"/>
<path d="M100.135 28.651H105.458V49.5282H100.135V28.651Z" fill="#003A70"/>
<path d="M109.182 35.3832C109.182 32.5541 109.139 30.5361 109.009 28.6526H113.598L113.768 32.636H113.942C114.97 29.6782 117.415 28.6526 119.644 28.6526C120.158 28.6526 120.458 28.5639 120.887 28.6526V33.2843C120.458 33.1965 119.987 33.1107 119.341 33.1107C116.814 33.1107 115.099 34.7388 114.629 37.0961C114.544 37.567 114.459 38.1285 114.459 38.731V49.5288H109.182V35.3832Z" fill="#003A70"/>
<path d="M123.331 28.651H128.644V49.5282H123.331V28.651Z" fill="#003A70"/>
<path fill-rule="evenodd" clip-rule="evenodd" d="M161.45 6.59584C158.826 3.60781 156.042 4.95706 153.819 6.05868C152.888 6.51883 149.508 8.76887 146.159 10.3375C143.772 11.4557 140.346 11.1174 138.468 8.79714C138.354 8.65675 135.317 4.97753 134.995 4.52421C133.023 2.05092 128.034 -0.000238419 122.074 3.41089C118.88 5.25927 111.354 9.57802 108.541 11.1846C106.831 12.0572 102.861 12.4383 100.619 9.40936C100.582 9.35965 97.6355 5.68335 97.5175 5.54199C97.4308 5.44255 95.5278 2.62025 91.2861 2.53349C90.6621 2.51789 87.5464 2.49937 84.5018 4.22784C80.4648 6.53735 71.0689 11.909 71.0689 11.909C71.062 11.909 71.062 11.9138 71.062 11.9138C67.1995 14.1249 64.1871 15.8417 64.1871 15.8417L67.7435 20.2131C69.4086 22.2769 73.158 23.8767 76.4122 22.0088C76.4122 22.0088 88.4326 15.0481 88.4745 15.0286C93.6745 12.1751 97.6872 12.1751 100.346 13.2377C102.737 14.2448 104.816 16.76 104.816 16.76C104.816 16.76 107.534 20.1292 108.012 20.718C109.558 22.621 112.115 21.8743 112.115 21.8743C112.115 21.8743 113.06 21.7651 114.495 20.9169C114.495 20.9169 126.135 14.1678 126.142 14.1658C129.841 11.9967 133.233 11.5921 134.964 11.7501C140.391 12.2443 142.079 16.0357 144.434 18.6796C145.819 20.2384 147.068 21.1197 148.98 21.0749C150.238 21.0466 151.657 20.2871 151.866 20.1507L165.807 12.103C165.807 12.103 164.379 9.95043 161.45 6.59584Z" fill="#FFB700"/>
</g>
</svg>
