<svg width="132" height="50" viewBox="0 0 132 50" fill="none" xmlns="http://www.w3.org/2000/svg">
<g clip-path="url(#clip0_313_1404)">
<g clip-path="url(#clip1_313_1404)">
<mask id="mask0_313_1404" style="mask-type:luminance" maskUnits="userSpaceOnUse" x="-1673" y="-25" width="2017" height="1136">
<path fill-rule="evenodd" clip-rule="evenodd" d="M-1672.73 1110.06H343.383V-24.0071H-1672.73V1110.06Z" fill="white"/>
</mask>
<g mask="url(#mask0_313_1404)">
<mask id="mask1_313_1404" style="mask-type:luminance" maskUnits="userSpaceOnUse" x="-3" y="-3" width="319" height="58">
<path d="M-2.63281 54.1174L315.402 54.1175L315.402 -2.58524L-2.63293 -2.58535L-2.63281 54.1174Z" fill="white"/>
</mask>
<g mask="url(#mask1_313_1404)">
<path d="M43.2294 8.16252L77.2464 8.16253L77.2465 28.5714L62.9756 28.5714L77.2465 41.6325L65.1233 41.6325L51.1279 28.5714L51.1279 41.6324L43.2295 41.6324L43.2295 20.885L68.1705 20.885L68.1705 15.9187L43.2294 15.9186L43.2294 8.16252Z" fill="black"/>
<path d="M80.7788 41.6324L89.0924 41.6324L89.0924 8.0947L80.7787 8.0947L80.7788 41.6324Z" fill="black"/>
<path d="M14.202 33.5372L14.2019 8.16246L7.68962 8.16246C6.51192 8.16246 5.61116 9.0475 5.61116 10.1346C5.61117 16.123 5.54198 33.7413 5.54199 39.5915C5.54199 40.68 6.44276 41.6324 7.55122 41.6324C12.0543 41.6324 25.0093 41.6324 26.879 41.6324L26.879 33.5372L14.202 33.5372Z" fill="black"/>
<path d="M31.1748 49.9999C31.9378 49.9999 37.7569 49.9999 39.6973 49.9999C39.6973 49.9999 39.6973 33.4691 39.6973 33.1971C36.9255 33.1971 34.0172 33.1971 31.1748 33.1971C31.1748 38.7753 31.1748 44.3534 31.1748 49.9999Z" fill="black"/>
<path d="M18.3588 8.16245C18.3588 8.29953 18.3589 16.5295 18.3589 16.5295C22.1694 16.5295 27.0182 16.5295 31.1746 16.5295C31.1746 22.3135 31.1746 29.0475 31.1746 29.0475C33.1151 29.0475 38.9341 29.0475 39.6972 29.0475L39.6971 10.2043C39.6971 9.11484 38.7951 8.2298 37.6884 8.16246C33.5319 8.16245 23.693 8.16245 18.3588 8.16245Z" fill="black"/>
<path d="M18.3589 20.6107C18.3589 23.4005 18.3589 26.1903 18.3589 29.1148C19.0517 29.1148 19.8138 29.1148 20.5066 29.1148C22.4473 29.1148 24.8705 29.1148 26.811 29.1148C26.811 29.1148 26.8109 20.7478 26.8109 20.6107C24.0392 20.6107 21.1994 20.6107 18.3589 20.6107ZM24.3171 26.5294C23.4858 26.5294 22.5156 26.5294 21.7525 26.5294C21.4766 26.5294 21.1994 26.5294 20.853 26.5294C20.853 25.3726 20.853 24.2856 20.853 23.1288C22.0304 23.1288 23.1396 23.1288 24.3171 23.1288C24.3171 23.1961 24.3171 26.5294 24.3171 26.5294Z" fill="black"/>
<path d="M129.898 33.1971L129.898 45.7142C129.898 46.8025 128.928 47.687 127.821 47.687L115.074 47.687L115.074 49.7277L129.898 49.7277L129.969 49.7277C131.007 49.7277 131.907 48.8433 131.907 47.7548L131.907 47.687L131.907 33.1971L129.898 33.1971Z" fill="black"/>
<path d="M2.07846 16.4621L2.07844 3.94411C2.07844 2.85705 2.90972 2.03935 4.01819 2.03935L16.7657 2.03935C16.8349 2.03935 16.8349 1.97201 16.8349 1.97201L16.8349 0.0672477C16.8349 0.0672477 16.8349 -9.31471e-05 16.7657 -9.31719e-05L2.07843 -9.8437e-05C0.900732 -9.88592e-05 -3.14559e-05 0.884945 -2.91348e-05 2.03935L-1.35398e-07 16.4621C0 16.5295 0.0692333 16.5295 0.0692333 16.5295L2.00923 16.5295C2.00923 16.5295 2.07846 16.5295 2.07846 16.4621Z" fill="black"/>
<path d="M126.295 16.4621L126.295 8.16248L92.6948 8.16247L92.6948 20.6108L92.6948 28.9802L115.074 28.9802L115.074 33.129L92.6948 33.129L92.6948 41.4963L126.295 41.4963L126.295 20.6805L103.918 20.6805L103.918 16.4621L126.295 16.4621Z" fill="black"/>
</g>
</g>
</g>
</g>
<defs>
<clipPath id="clip0_313_1404">
<rect width="132" height="50" fill="white"/>
</clipPath>
<clipPath id="clip1_313_1404">
<rect width="311.194" height="50" fill="white"/>
</clipPath>
</defs>
</svg>
